<?xml version="1.0" encoding="utf-8"?>
<!-- Generator: Adobe Illustrator 24.0.2, SVG Export Plug-In . SVG Version: 6.00 Build 0)  -->
<svg version="1.1" id="Layer_1" xmlns="http://www.w3.org/2000/svg" xmlns:xlink="http://www.w3.org/1999/xlink" x="0px" y="0px"
	 viewBox="0 0 128 128" style="enable-background:new 0 0 128 128;" xml:space="preserve">
<style type="text/css">
	.st0{fill:#F37429;}
	.st1{fill:#FFFEF9;}
	.st2{fill:#FFFFFF;}
</style>
<g>
	<path class="st0" d="M33,124.5c-16.27,0-29.5-13.23-29.5-29.5V33C3.5,16.73,16.73,3.5,33,3.5h62c16.27,0,29.5,13.23,29.5,29.5v62
		c0,16.27-13.23,29.5-29.5,29.5H33z"/>
	<path class="st1" d="M95,7c14.34,0,26,11.66,26,26v62c0,14.34-11.66,26-26,26H33c-14.34,0-26-11.66-26-26V33C7,18.66,18.66,7,33,7
		H95 M95,0H33C14.77,0,0,14.77,0,33v62c0,18.23,14.77,33,33,33h62c18.23,0,33-14.77,33-33V33C128,14.77,113.23,0,95,0L95,0z"/>
</g>
<g>
	<path class="st2" d="M25.63,47.05h39.12v10.29H51.63V88.7H38.75V57.33H25.63V47.05z"/>
	<path class="st2" d="M68.33,74.92l12.25-0.77c0.27,1.99,0.81,3.5,1.62,4.55c1.33,1.69,3.22,2.53,5.68,2.53
		c1.84,0,3.25-0.43,4.25-1.29c1-0.86,1.49-1.86,1.49-3c0-1.08-0.47-2.05-1.42-2.9c-0.95-0.85-3.14-1.66-6.59-2.42
		c-5.64-1.27-9.67-2.96-12.08-5.06c-2.42-2.1-3.64-4.78-3.64-8.04c0-2.14,0.62-4.16,1.86-6.07c1.24-1.9,3.11-3.4,5.6-4.49
		c2.49-1.09,5.91-1.63,10.24-1.63c5.32,0,9.38,0.99,12.17,2.97c2.79,1.98,4.46,5.13,4.99,9.45l-12.13,0.71
		c-0.32-1.88-1-3.24-2.03-4.09c-1.03-0.85-2.46-1.28-4.28-1.28c-1.5,0-2.62,0.32-3.38,0.95c-0.76,0.64-1.14,1.41-1.14,2.32
		c0,0.66,0.31,1.26,0.94,1.79c0.61,0.55,2.04,1.06,4.32,1.53c5.63,1.21,9.66,2.44,12.09,3.68c2.43,1.24,4.21,2.78,5.31,4.62
		c1.11,1.84,1.66,3.89,1.66,6.17c0,2.67-0.74,5.13-2.22,7.39c-1.48,2.25-3.54,3.96-6.19,5.13c-2.65,1.17-6,1.75-10.03,1.75
		c-7.08,0-11.99-1.36-14.72-4.09C70.24,82.59,68.69,79.13,68.33,74.92z"/>
</g>
</svg>
